<?xml version="1.0" encoding="iso-8859-1"?>
<!-- Generator: Adobe Illustrator 19.0.0, SVG Export Plug-In . SVG Version: 6.00 Build 0)  -->
<svg version="1.1" id="Capa_1" xmlns="http://www.w3.org/2000/svg" xmlns:xlink="http://www.w3.org/1999/xlink" x="0px" y="0px"
	 viewBox="0 0 512 512" style="enable-background:new 0 0 512 512;" xml:space="preserve">
<polygon style="fill:#FFC66C;" points="91.278,104 420.721,104 448,266.167 63.999,266.167 "/>
<path style="fill:#6A80FF;" d="M131.745,54h248.508c23.936,0,44.955,15.91,51.455,38.946l2.554,9.054H77.736l2.554-9.054
	C86.79,69.91,107.809,54,131.745,54z"/>
<path style="fill:#EDF2FA;" d="M227.971,10h56.057c11.128,0,20.955,7.257,24.228,17.893L316.29,54H195.708l8.035-26.107
	C207.016,17.257,216.843,10,227.971,10z"/>
<path style="fill:#7D9BFF;" d="M227.667,461.938h-110.33c-14.939,0-27.593-11.012-29.654-25.809L63.999,266.167h384l-23.683,169.962
	c-2.062,14.796-14.715,25.809-29.654,25.809H286.667"/>
<g>
	<circle style="fill:#FFC66C;" cx="91.359" cy="306.17" r="40"/>
	<circle style="fill:#FFC66C;" cx="420.64" cy="306.17" r="40"/>
</g>
<path style="fill:#C9F3FF;" d="M135.643,234.167h240.713c17.514,0,30.868-15.674,28.086-32.966l-6.64-41.273
	C395.583,146.139,383.682,136,369.716,136H142.283c-13.967,0-25.867,10.139-28.086,23.928l-6.64,41.273
	C104.775,218.492,118.129,234.167,135.643,234.167z"/>
<g>
	<path style="fill:#898998;" d="M132.376,502h-12.5c-7.594,0-13.75-6.156-13.75-13.75v-26.313h40v26.313
		C146.126,495.844,139.97,502,132.376,502z"/>
	<path style="fill:#898998;" d="M392.122,502h-12.5c-7.594,0-13.75-6.156-13.75-13.75v-26.313h40v26.313
		C405.872,495.844,399.716,502,392.122,502z"/>
	<path style="fill:#898998;" d="M280,429.333v54c0,10.309-8.357,18.667-18.667,18.667h-10.667c-10.309,0-18.666-8.357-18.666-18.667
		v-54"/>
</g>
<path style="fill:#ADE5FF;" d="M330.667,406c0-41.237-33.429-74.667-74.667-74.667s-74.667,33.43-74.667,74.667l0,0
	c16.492,0,32.321,6.433,44.178,17.896c7.893,7.632,18.641,12.328,30.489,12.328l0,0c11.848,0,22.595-4.696,30.489-12.328
	C298.344,412.433,314.174,406,330.667,406L330.667,406z"/>
<path d="M470.643,306.167c0-13.509-5.394-25.774-14.129-34.781c1.252-2.044,1.751-4.481,1.348-6.878L432.206,112h2.056
	c3.132,0,6.083-1.467,7.974-3.964c1.89-2.498,2.501-5.736,1.65-8.75l-2.554-9.054C433.653,63.011,408.536,44,380.253,44h-56.578
	l-5.863-19.048C313.221,10.027,299.644,0,284.028,0h-56.057c-15.616,0-29.193,10.027-33.785,24.951L188.324,44h-56.578
	c-28.282,0-53.399,19.011-61.079,46.231l-2.554,9.054c-0.851,3.015-0.239,6.253,1.65,8.75c1.891,2.497,4.842,3.964,7.974,3.964
	h2.056L54.138,264.508c-0.403,2.397,0.095,4.834,1.348,6.878c-8.736,9.007-14.129,21.272-14.129,34.781
	c0,18.085,9.652,33.958,24.075,42.74l12.346,88.602c1.668,11.977,8.656,22.148,18.349,28.264v22.477
	c0,13.096,10.654,23.75,23.75,23.75h12.5c13.096,0,23.75-10.654,23.75-23.75v-16.313h65.872v11.396
	c0,15.807,12.86,28.667,28.667,28.667h10.666C277.14,512,290,499.14,290,483.333v-11.396h65.873v16.313
	c0,13.096,10.654,23.75,23.75,23.75h12.5c13.096,0,23.75-10.654,23.75-23.75v-22.51c9.688-6.134,16.657-16.324,18.301-28.322
	l12.105-88.345C460.859,340.329,470.643,324.372,470.643,306.167z M213.301,30.833c1.994-6.48,7.89-10.833,14.67-10.833h56.057
	c6.78,0,12.676,4.354,14.67,10.834L302.75,44h-93.5L213.301,30.833z M131.745,64h248.508c18.075,0,34.262,11.337,40.618,28H91.127
	C97.484,75.338,113.672,64,131.745,64z M99.736,114h312.525l23.915,142.167H75.821L99.736,114z M91.356,276.167
	c16.542,0,30,13.458,30,30s-13.458,30-30,30s-30-13.458-30-30S74.814,276.167,91.356,276.167z M136.126,488.25
	c0,2.067-1.683,3.75-3.75,3.75h-12.5c-2.067,0-3.75-1.683-3.75-3.75v-16.313h1.21h18.79V488.25z M209.35,451.938v-27.999
	c3.282,2.025,6.376,4.406,9.211,7.147c1.107,1.07,2.259,2.078,3.439,3.042v17.81H209.35z M310.964,398.681
	c-0.79,0.135-1.55,0.353-2.266,0.661c-10.821,3.384-20.79,9.271-29.162,17.365c-6.347,6.137-14.706,9.517-23.537,9.517
	c-8.831,0-17.19-3.38-23.537-9.517c-8.372-8.094-18.342-13.98-29.162-17.365c-0.715-0.308-1.476-0.527-2.265-0.661
	c-2.962-0.822-5.98-1.468-9.045-1.914c4.493-31.3,31.486-55.435,64.01-55.435c32.524,0,59.517,24.135,64.01,55.435
	C316.945,397.213,313.927,397.859,310.964,398.681z M261.333,492h-10.666c-4.779,0-8.667-3.888-8.667-8.667v-38.958
	c4.517,1.21,9.212,1.849,14,1.849c4.788,0,9.483-0.639,14-1.849v38.958C270,488.112,266.112,492,261.333,492z M290,434.127
	c1.181-0.964,2.333-1.971,3.439-3.042c2.835-2.741,5.928-5.122,9.211-7.147v27.999H290V434.127z M395.872,471.938v16.313
	c0,2.067-1.683,3.75-3.75,3.75h-12.5c-2.067,0-3.75-1.683-3.75-3.75v-16.313h18.729H395.872z M414.359,434.704
	c-1.347,9.824-9.84,17.233-19.757,17.233h-71.952v-35.334c2.634-0.396,5.311-0.604,8.017-0.604c5.522,0,10-4.478,10-10
	c0-46.686-37.981-84.667-84.667-84.667S171.332,359.314,171.332,406c0,5.522,4.478,10,10,10c2.706,0,5.383,0.207,8.017,0.604v35.334
	h-72.013c-9.894,0-18.385-7.39-19.75-17.188l-10.982-78.814c1.565,0.148,3.149,0.232,4.752,0.232
	c24.145,0,44.345-17.202,48.993-39.994h26.844c5.522,0,10-4.478,10-10s-4.478-10-10-10h-26.842
	c-1.505-7.388-4.644-14.188-9.022-20.006h249.34c-6.292,8.363-10.027,18.753-10.027,30c0,27.57,22.43,50,50,50
	c1.52,0,3.021-0.08,4.507-0.213L414.359,434.704z M420.643,336.167c-16.542,0-30-13.458-30-30s13.458-30,30-30s30,13.458,30,30
	S437.185,336.167,420.643,336.167z"/>
<path d="M135.643,244.167h240.713c11.282,0,21.949-4.926,29.267-13.514c7.316-8.588,10.484-19.902,8.692-31.04l-6.641-41.273
	c-3.016-18.739-18.98-32.34-37.959-32.34h-56.383c-5.522,0-10,4.477-10,10s4.478,10,10,10h26.524l-78.167,78.167h-60.585
	l41.364-41.363c3.905-3.905,3.905-10.237,0-14.142c-3.904-3.905-10.234-3.905-14.143,0l-55.506,55.506h-37.177
	c-5.413,0-10.531-2.363-14.042-6.484s-5.031-9.549-4.171-14.893l6.641-41.272c1.446-8.991,9.106-15.517,18.213-15.517h86.049
	c5.522,0,10-4.477,10-10s-4.478-10-10-10h-86.049c-18.979,0-34.943,13.601-37.959,32.34l-6.641,41.273
	c-1.792,11.138,1.376,22.452,8.692,31.04C113.693,239.241,124.36,244.167,135.643,244.167z M368.143,146h1.573
	c9.106,0,16.767,6.526,18.213,15.517l6.641,41.273c0.86,5.344-0.66,10.772-4.171,14.893s-8.629,6.484-14.042,6.484h-86.38
	L368.143,146z"/>
<path d="M199.288,296.172c-5.522,0-10,4.478-10,10s4.478,10,10,10h0.062c5.522,0,9.969-4.478,9.969-10
	S204.811,296.172,199.288,296.172z"/>
<g>
</g>
<g>
</g>
<g>
</g>
<g>
</g>
<g>
</g>
<g>
</g>
<g>
</g>
<g>
</g>
<g>
</g>
<g>
</g>
<g>
</g>
<g>
</g>
<g>
</g>
<g>
</g>
<g>
</g>
</svg>
